# xmcd
#
# Track frame offsets:
#	183
#	13515
#	25778
#	34993
#	48988
#	61778
#	71723
#	84233
#	95715
#	109070
#	121755
#	134005
#	146998
#	159123
#	170355
#	180853
#	193303
#	202965
#	213888
#	224008
#
# Disc length: 3113
#
# Revision: 1
# Processed by: cddbd v1.5.1PL0 Copyright (c) Steve Scherf et al.
# Submitted via: CDex 1.40Beta9
# Normalized: r0:TDELIM( - )
#
DISCID=1b0c2714
DTITLE=Various Artist - The Country Box - CD 1
DYEAR=1992
DGENRE=Country
TTITLE0=Lynn Anderson - Rose Garden
TTITLE1=Johnny Cash - I walk the line
TTITLE2=Frankie Laine - Rawhide
TTITLE3=Bob Luman - Lonely women make good lovers
TTITLE4=Dolly Parton - Little Blossom
TTITLE5=Hank Locklin - Please help me I'm falling
TTITLE6=Faron Young - It's four in the morning
TTITLE7=Patsy Cline - Walking after midnight
TTITLE8=Patti Page - Tennessee Waltz
TTITLE9=Willie Nelson - Any old arms won't do
TTITLE10=Billie Jo Spears - What I've got in mind
TTITLE11=Carl Perkins - Let the jukebox keep on playing
TTITLE12=Johnny Dollar - Big big rolling man
TTITLE13=Donna Fargo - Wishful thinking
TTITLE14=Charlie Brown - See the big man cry
TTITLE15=Kenny Rogers - Reuben James
TTITLE16=David Houston - Living in a house full of love
TTITLE17=Johnny Cash - The ways of a woman in love
TTITLE18=Maxine Brown - Take it out in trade
TTITLE19=Flatt and Scruggs - Foggy mountain breakdown
EXTD=YEAR: 1992 ID3G: 2
EXTT0=
EXTT1=
EXTT2=
EXTT3=
EXTT4=
EXTT5=
EXTT6=
EXTT7=
EXTT8=
EXTT9=
EXTT10=
EXTT11=
EXTT12=
EXTT13=
EXTT14=
EXTT15=
EXTT16=
EXTT17=
EXTT18=
EXTT19=
PLAYORDER=
